<?xml version="1.0" encoding="UTF-8"?>
<svg xmlns="http://www.w3.org/2000/svg" version="1.1" width="361px" height="61px" style="shape-rendering:geometricPrecision; text-rendering:geometricPrecision; image-rendering:optimizeQuality; fill-rule:evenodd; clip-rule:evenodd" xmlns:xlink="http://www.w3.org/1999/xlink">
<g><path style="opacity:0.911" fill="#fefffe" d="M 82.5,7.5 C 85.5,7.5 88.5,7.5 91.5,7.5C 91.334,12.8437 91.5006,18.1771 92,23.5C 95.2572,20.5715 99.0906,19.7382 103.5,21C 105.815,22.1094 107.315,23.9427 108,26.5C 108.5,33.4921 108.666,40.4921 108.5,47.5C 105.5,47.5 102.5,47.5 99.5,47.5C 99.6662,41.4908 99.4995,35.4908 99,29.5C 95.8412,26.6593 93.5078,27.326 92,31.5C 91.5006,36.8229 91.334,42.1563 91.5,47.5C 88.5,47.5 85.5,47.5 82.5,47.5C 82.5,34.1667 82.5,20.8333 82.5,7.5 Z"/></g>
<g><path style="opacity:0.911" fill="#fefffe" d="M 197.5,7.5 C 200.5,7.5 203.5,7.5 206.5,7.5C 206.334,12.8437 206.501,18.1771 207,23.5C 210.257,20.5715 214.091,19.7382 218.5,21C 220.815,22.1094 222.315,23.9427 223,26.5C 223.5,33.4921 223.666,40.4921 223.5,47.5C 220.5,47.5 217.5,47.5 214.5,47.5C 214.666,41.4908 214.499,35.4908 214,29.5C 210.841,26.6593 208.508,27.326 207,31.5C 206.501,36.8229 206.334,42.1563 206.5,47.5C 203.5,47.5 200.5,47.5 197.5,47.5C 197.5,34.1667 197.5,20.8333 197.5,7.5 Z"/></g>
<g><path style="opacity:0.911" fill="#fefffe" d="M 309.5,7.5 C 312.5,7.5 315.5,7.5 318.5,7.5C 318.334,12.8437 318.501,18.1771 319,23.5C 322.257,20.5715 326.091,19.7382 330.5,21C 332.815,22.1094 334.315,23.9427 335,26.5C 335.5,33.4921 335.666,40.4921 335.5,47.5C 332.5,47.5 329.5,47.5 326.5,47.5C 326.666,41.4908 326.499,35.4908 326,29.5C 322.841,26.6593 320.508,27.326 319,31.5C 318.501,36.8229 318.334,42.1563 318.5,47.5C 315.5,47.5 312.5,47.5 309.5,47.5C 309.5,34.1667 309.5,20.8333 309.5,7.5 Z"/></g>
<g><path style="opacity:0.827" fill="#fefffe" d="M 163.5,8.5 C 169.989,8.15625 171.989,10.9896 169.5,17C 161.749,18.0913 159.749,15.258 163.5,8.5 Z"/></g>
<g><path style="opacity:0.827" fill="#fefffe" d="M 343.5,8.5 C 349.989,8.15625 351.989,10.9896 349.5,17C 341.749,18.0913 339.749,15.258 343.5,8.5 Z"/></g>
<g><path style="opacity:0.942" fill="#fefffe" d="M 0.5,9.5 C 10.1667,9.5 19.8333,9.5 29.5,9.5C 29.5,11.8333 29.5,14.1667 29.5,16.5C 26.1667,16.5 22.8333,16.5 19.5,16.5C 19.5,26.8333 19.5,37.1667 19.5,47.5C 16.5,47.5 13.5,47.5 10.5,47.5C 10.5,37.1667 10.5,26.8333 10.5,16.5C 7.16667,16.5 3.83333,16.5 0.5,16.5C 0.5,14.1667 0.5,11.8333 0.5,9.5 Z"/></g>
<g><path style="opacity:0.901" fill="#fefffe" d="M 111.5,10.5 C 114.687,9.19438 118.02,9.19438 121.5,10.5C 123.318,18.426 124.818,26.426 126,34.5C 127.898,26.5088 129.731,18.5088 131.5,10.5C 134.768,9.51298 138.102,9.17964 141.5,9.5C 142.676,17.8824 144.176,26.2158 146,34.5C 147.31,26.1187 148.81,17.7853 150.5,9.5C 153.5,9.5 156.5,9.5 159.5,9.5C 156.974,21.9388 153.974,34.2721 150.5,46.5C 147.167,47.8333 143.833,47.8333 140.5,46.5C 138.681,38.5725 137.181,30.5725 136,22.5C 134.479,30.582 132.646,38.582 130.5,46.5C 127.232,47.487 123.898,47.8204 120.5,47.5C 117.944,34.9442 114.944,22.6108 111.5,10.5 Z"/></g>
<g><path style="opacity:0.907" fill="#fefffe" d="M 237.5,9.5 C 240.5,9.5 243.5,9.5 246.5,9.5C 246.666,18.1731 246.5,26.8397 246,35.5C 245.853,40.9814 243.353,44.8147 238.5,47C 234.514,47.4988 230.514,47.6655 226.5,47.5C 226.232,44.8806 226.565,42.3806 227.5,40C 228.899,39.4054 230.232,39.5721 231.5,40.5C 233.059,39.9264 234.559,39.2598 236,38.5C 237.391,28.8997 237.891,19.233 237.5,9.5 Z"/></g>
<g><path style="opacity:0.91" fill="#fefffe" d="M 185.5,12.5 C 186.473,14.9479 186.806,17.6146 186.5,20.5C 188.5,20.5 190.5,20.5 192.5,20.5C 192.5,22.8333 192.5,25.1667 192.5,27.5C 190.5,27.5 188.5,27.5 186.5,27.5C 186.021,31.9113 186.688,36.078 188.5,40C 189.793,40.49 191.127,40.6567 192.5,40.5C 192.5,42.8333 192.5,45.1667 192.5,47.5C 188.089,47.979 183.922,47.3124 180,45.5C 177.849,39.7114 177.016,33.7114 177.5,27.5C 176.5,27.5 175.5,27.5 174.5,27.5C 174.5,25.1667 174.5,22.8333 174.5,20.5C 175.5,20.5 176.5,20.5 177.5,20.5C 177.34,18.8008 177.506,17.1341 178,15.5C 180.567,14.4131 183.067,13.4131 185.5,12.5 Z"/></g>
<g><path style="opacity:0.892" fill="#fefffe" d="M 35.5,20.5 C 48.1531,18.4907 54.1531,23.824 53.5,36.5C 47.7945,36.1712 42.1278,36.5046 36.5,37.5C 36.9767,38.4776 37.6433,39.3109 38.5,40C 42.5575,40.7666 46.5575,40.5999 50.5,39.5C 51.2922,41.4648 51.9588,43.4648 52.5,45.5C 45.4367,48.2815 38.4367,48.1148 31.5,45C 27.7159,40.139 26.5493,34.639 28,28.5C 29.6904,24.9791 32.1904,22.3124 35.5,20.5 Z M 38.5,26.5 C 41.6571,26.0785 43.9905,27.2452 45.5,30C 42.4459,30.8214 39.4459,30.6548 36.5,29.5C 37.1925,28.4822 37.8592,27.4822 38.5,26.5 Z"/></g>
<g><path style="opacity:0.882" fill="#fefffe" d="M 65.5,20.5 C 69.8333,20.5 74.1667,20.5 78.5,20.5C 78.3215,23.2165 77.8215,25.8832 77,28.5C 67.0771,26.0855 63.9104,29.5855 67.5,39C 70.6241,40.6875 73.7908,40.8541 77,39.5C 80.3374,46.1357 78.3374,48.8024 71,47.5C 64.3397,48.1736 59.673,45.5069 57,39.5C 54.752,30.7011 57.5854,24.3678 65.5,20.5 Z"/></g>
<g><path style="opacity:0.919" fill="#fefffe" d="M 161.5,20.5 C 164.5,20.5 167.5,20.5 170.5,20.5C 170.5,29.5 170.5,38.5 170.5,47.5C 167.5,47.5 164.5,47.5 161.5,47.5C 161.5,38.5 161.5,29.5 161.5,20.5 Z"/></g>
<g><path style="opacity:0.746" fill="#650ff2" d="M 253.5,20.5 C 255.833,20.5 258.167,20.5 260.5,20.5C 259.595,24.8377 258.595,29.1711 257.5,33.5C 258.348,37.8895 259.348,42.2228 260.5,46.5C 257.606,46.9577 255.106,46.291 253,44.5C 251.24,36.4631 251.407,28.4631 253.5,20.5 Z"/></g>
<g><path style="opacity:0.836" fill="#650ff2" d="M 273.5,20.5 C 276.595,20.6263 278.428,22.293 279,25.5C 279.667,31.1667 279.667,36.8333 279,42.5C 277.682,45.9414 275.182,47.2747 271.5,46.5C 273.579,42.4786 274.912,38.1453 275.5,33.5C 274.925,29.5179 273.592,25.8512 271.5,22.5C 272.243,21.8182 272.909,21.1515 273.5,20.5 Z"/></g>
<g><path style="opacity:0.877" fill="#fefffe" d="M 290.5,20.5 C 294.571,20.2338 298.571,20.5672 302.5,21.5C 303.512,23.8369 303.345,26.1703 302,28.5C 300.293,27.5415 298.459,26.8748 296.5,26.5C 295,26.4528 294,27.1195 293.5,28.5C 296.694,30.0683 299.86,31.7349 303,33.5C 305.303,38.0383 304.803,42.205 301.5,46C 295.55,47.8289 289.55,47.9956 283.5,46.5C 283.993,44.1944 284.326,41.861 284.5,39.5C 287.203,39.9555 289.87,40.6221 292.5,41.5C 294,41.5472 295,40.8805 295.5,39.5C 291.812,37.564 288.312,35.2307 285,32.5C 283.375,26.757 285.208,22.757 290.5,20.5 Z"/></g>
<g><path style="opacity:0.919" fill="#fefffe" d="M 341.5,20.5 C 344.5,20.5 347.5,20.5 350.5,20.5C 350.5,29.5 350.5,38.5 350.5,47.5C 347.5,47.5 344.5,47.5 341.5,47.5C 341.5,38.5 341.5,29.5 341.5,20.5 Z"/></g>
</svg>
